<svg xmlns="http://www.w3.org/2000/svg" width="360" height="120" viewBox="0 0 360 120" role="img" aria-label="mohitkanwar.com watermark">
  <defs>
    <filter id="softShadow" x="-20%" y="-20%" width="140%" height="140%">
      <feDropShadow dx="0" dy="8" stdDeviation="8" flood-color="#000000" flood-opacity="0.28"/>
    </filter>
    <style>
      .brand { font: 800 22px Inter, Arial, sans-serif; fill: #f8fafc; letter-spacing: 0; }
    </style>
  </defs>
  <rect x="0" y="0" width="360" height="120" rx="32" fill="#0f172a" opacity="0.62" filter="url(#softShadow)"/>
  <g transform="translate(22 20) scale(0.16)" opacity="0.96">
    <polygon points="250,12 318,92 423,86 416,196 488,250 416,304 423,414 318,408 250,488 182,408 77,414 84,304 12,250 84,196 77,86 182,92" fill="#050505" stroke="#d4d4d8" stroke-width="30" stroke-linejoin="round"/>
    <polygon points="250,32 308,108 404,104 396,202 462,250 396,298 404,396 308,392 250,468 192,392 96,396 104,298 38,250 104,202 96,104 192,108" fill="none" stroke="#71717a" stroke-width="10" stroke-linejoin="round"/>
    <ellipse cx="185" cy="195" rx="72" ry="58" fill="#ffffff" stroke="#111827" stroke-width="6"/>
    <ellipse cx="315" cy="195" rx="72" ry="58" fill="#ffffff" stroke="#111827" stroke-width="6"/>
    <circle cx="185" cy="195" r="26" fill="#000000"/>
    <circle cx="315" cy="195" r="26" fill="#000000"/>
    <rect x="225" y="210" width="24" height="118" rx="12" fill="#ffffff"/>
    <rect x="150" y="240" width="24" height="132" rx="12" fill="#ffffff"/>
    <rect x="350" y="240" width="24" height="132" rx="12" fill="#ffffff"/>
  </g>
  <text x="116" y="70" class="brand">mohitkanwar.com</text>
</svg>
